<svg xmlns="http://www.w3.org/2000/svg" height="658pt" version="1.1" viewBox="-34 0 658 658.15128" width="658pt">
<g id="surface1">
<path d="M 367.875 576.800781 C 367.175781 574.5 366.574219 572.101562 365.976562 569.699219 C 365.675781 568.398438 365.476562 567.101562 365.175781 565.800781 C 364.777344 563.5 364.375 561.199219 364.074219 558.800781 C 363.875 557.5 363.777344 556.101562 363.574219 554.800781 C 363.375 552.300781 363.277344 549.800781 363.175781 547.199219 C 363.175781 546.300781 363.074219 545.398438 363.074219 544.5 C 363.074219 544.199219 363.074219 543.898438 363.074219 543.601562 C 363.074219 540.800781 363.277344 537.898438 363.476562 535.101562 C 363.574219 534.300781 363.574219 533.5 363.574219 532.699219 C 364.277344 525.601562 365.675781 518.601562 367.675781 511.800781 C 378.476562 475.300781 407.074219 446.699219 443.574219 435.898438 C 450.476562 433.898438 457.476562 432.5 464.574219 431.800781 C 465.375 431.699219 466.277344 431.699219 467.175781 431.601562 C 469.976562 431.398438 472.875 431.199219 475.574219 431.199219 C 475.875 431.199219 476.175781 431.199219 476.476562 431.199219 C 477.375 431.199219 478.277344 431.300781 479.175781 431.300781 C 481.675781 431.398438 484.277344 431.5 486.777344 431.699219 C 488.074219 431.800781 489.476562 432 490.777344 432.199219 C 493.074219 432.5 495.476562 432.898438 497.777344 433.300781 C 499.074219 433.5 500.375 433.800781 501.675781 434.101562 C 504.074219 434.601562 506.375 435.199219 508.777344 436 C 509.875 436.300781 511.074219 436.601562 512.074219 437 C 515.476562 438.101562 518.777344 439.300781 521.976562 440.800781 L 521.976562 22.800781 C 521.976562 10.300781 511.777344 0.101562 499.277344 0.101562 L 147.574219 0.101562 L 147.574219 113.398438 C 147.574219 125.898438 137.375 136.101562 124.875 136.101562 L 0.0742188 136.101562 L 0.0742188 567.199219 C 0.0742188 579.699219 10.277344 589.898438 22.777344 589.898438 L 372.675781 589.898438 C 371.277344 586.699219 369.976562 583.398438 368.875 580 C 368.574219 579 368.277344 577.898438 367.875 576.800781 Z M 431.175781 226.898438 Z M 136.277344 226.898438 Z M 431.175781 294.898438 Z M 431.175781 363 Z M 374.476562 431.101562 Z M 90.875 499.101562 Z M 90.875 499.101562 " style=" stroke:none;fill-rule:nonzero;fill:rgb(100%,91.372549%,80%);fill-opacity:1;" />
<path d="M 147.574219 589.898438 L 499.277344 589.898438 C 511.777344 589.898438 521.976562 579.699219 521.976562 567.199219 L 521.976562 239.300781 C 459.976562 409 320.976562 539.199219 147.574219 589.898438 Z M 147.574219 589.898438 " style=" stroke:none;fill-rule:nonzero;fill:rgb(100%,88.627451%,74.117647%);fill-opacity:1;" />
<path d="M 364.074219 558.800781 C 364.375 561.101562 364.777344 563.5 365.175781 565.800781 C 364.777344 563.5 364.375 561.101562 364.074219 558.800781 Z M 364.074219 558.800781 " style=" stroke:none;fill-rule:nonzero;fill:rgb(100%,91.372549%,80%);fill-opacity:1;" />
<path d="M 365.976562 569.699219 C 366.476562 572.101562 367.074219 574.5 367.875 576.800781 C 367.175781 574.398438 366.476562 572.101562 365.976562 569.699219 Z M 365.976562 569.699219 " style=" stroke:none;fill-rule:nonzero;fill:rgb(100%,91.372549%,80%);fill-opacity:1;" />
<path d="M 467.277344 431.601562 C 470.074219 431.398438 472.875 431.199219 475.675781 431.199219 C 472.875 431.101562 470.074219 431.300781 467.277344 431.601562 Z M 467.277344 431.601562 " style=" stroke:none;fill-rule:nonzero;fill:rgb(100%,91.372549%,80%);fill-opacity:1;" />
<path d="M 367.875 511.699219 C 365.875 518.5 364.476562 525.601562 363.777344 532.601562 C 369.375 479.300781 411.476562 437.300781 464.777344 431.601562 C 457.675781 432.300781 450.675781 433.699219 443.777344 435.699219 C 407.175781 446.601562 378.675781 475.199219 367.875 511.699219 Z M 367.875 511.699219 " style=" stroke:none;fill-rule:nonzero;fill:rgb(100%,91.372549%,80%);fill-opacity:1;" />
<path d="M 363.074219 543.601562 C 363.074219 540.699219 363.277344 537.898438 363.476562 535.101562 C 363.375 537.898438 363.175781 540.800781 363.074219 543.601562 Z M 363.074219 543.601562 " style=" stroke:none;fill-rule:nonzero;fill:rgb(100%,91.372549%,80%);fill-opacity:1;" />
<path d="M 497.777344 433.199219 C 495.476562 432.800781 493.175781 432.398438 490.777344 432.101562 C 493.175781 432.398438 495.476562 432.699219 497.777344 433.199219 Z M 497.777344 433.199219 " style=" stroke:none;fill-rule:nonzero;fill:rgb(100%,91.372549%,80%);fill-opacity:1;" />
<path d="M 486.777344 431.601562 C 484.277344 431.398438 481.777344 431.300781 479.175781 431.199219 C 481.777344 431.300781 484.277344 431.398438 486.777344 431.601562 Z M 486.777344 431.601562 " style=" stroke:none;fill-rule:nonzero;fill:rgb(100%,91.372549%,80%);fill-opacity:1;" />
<path d="M 363.277344 547.199219 C 363.375 549.800781 363.476562 552.300781 363.675781 554.800781 C 363.476562 552.300781 363.277344 549.699219 363.277344 547.199219 Z M 363.277344 547.199219 " style=" stroke:none;fill-rule:nonzero;fill:rgb(100%,91.372549%,80%);fill-opacity:1;" />
<path d="M 372.675781 589.898438 C 371.277344 586.699219 369.976562 583.398438 368.875 580 C 369.976562 583.398438 371.277344 586.699219 372.675781 589.898438 Z M 372.675781 589.898438 " style=" stroke:none;fill-rule:nonzero;fill:rgb(100%,91.372549%,80%);fill-opacity:1;" />
<path d="M 508.777344 435.898438 C 506.476562 435.199219 504.074219 434.601562 501.675781 434 C 504.074219 434.5 506.476562 435.199219 508.777344 435.898438 Z M 508.777344 435.898438 " style=" stroke:none;fill-rule:nonzero;fill:rgb(100%,91.372549%,80%);fill-opacity:1;" />
<path d="M 521.976562 440.601562 C 518.777344 439.199219 515.476562 437.898438 512.074219 436.800781 C 515.476562 438 518.777344 439.199219 521.976562 440.601562 Z M 521.976562 440.601562 " style=" stroke:none;fill-rule:nonzero;fill:rgb(100%,91.372549%,80%);fill-opacity:1;" />
<path d="M 147.574219 113.398438 L 147.574219 0 L 0.0742188 136.101562 L 124.875 136.101562 C 137.375 136.101562 147.574219 126 147.574219 113.398438 Z M 147.574219 113.398438 " style=" stroke:none;fill-rule:nonzero;fill:rgb(100%,66.27451%,57.647059%);fill-opacity:1;" />
<path d="M 521.976562 440.601562 C 518.777344 439.199219 515.476562 437.898438 512.074219 436.800781 C 510.976562 436.398438 509.875 436.199219 508.777344 435.800781 C 506.476562 435.101562 504.074219 434.5 501.675781 433.898438 C 500.375 433.601562 499.074219 433.300781 497.777344 433.101562 C 495.476562 432.699219 493.175781 432.300781 490.777344 432 C 489.476562 431.800781 488.074219 431.699219 486.777344 431.5 C 484.277344 431.300781 481.777344 431.199219 479.175781 431.101562 C 477.976562 431.101562 476.777344 431 475.574219 431 C 472.777344 431 469.976562 431.199219 467.175781 431.398438 C 466.277344 431.5 465.476562 431.5 464.574219 431.601562 C 411.277344 437.199219 369.277344 479.300781 363.574219 532.601562 C 363.476562 533.398438 363.476562 534.199219 363.476562 535 C 363.277344 537.800781 363.074219 540.699219 363.074219 543.5 C 363.074219 544.699219 363.175781 545.898438 363.175781 547.101562 C 363.277344 549.699219 363.375 552.199219 363.574219 554.699219 C 363.675781 556 363.875 557.398438 364.074219 558.699219 C 364.375 561 364.777344 563.398438 365.175781 565.699219 C 365.375 567 365.675781 568.300781 365.976562 569.601562 C 366.476562 572 367.074219 574.398438 367.875 576.699219 C 368.175781 577.800781 368.476562 578.898438 368.875 580 C 369.976562 583.398438 371.175781 586.699219 372.675781 589.898438 C 397.675781 647.398438 464.476562 673.699219 521.976562 648.699219 C 579.476562 623.699219 605.777344 556.898438 580.777344 499.398438 C 569.277344 473.101562 548.277344 452.101562 521.976562 440.601562 Z M 453.875 589.898438 L 417.074219 553.101562 L 453.875 589.898438 L 538.777344 505 Z M 453.875 589.898438 " style=" stroke:none;fill-rule:nonzero;fill:rgb(49.411765%,74.117647%,31.372549%);fill-opacity:1;" />
<path d="M 367.875 576.800781 C 368.175781 577.898438 368.476562 579 368.875 580.101562 C 368.574219 579 368.277344 577.898438 367.875 576.800781 Z M 367.875 576.800781 " style=" stroke:none;fill-rule:nonzero;fill:rgb(100%,91.372549%,80%);fill-opacity:1;" />
<path d="M 365.277344 565.800781 C 365.476562 567.101562 365.777344 568.398438 366.074219 569.699219 C 365.777344 568.300781 365.476562 567.101562 365.277344 565.800781 Z M 365.277344 565.800781 " style=" stroke:none;fill-rule:nonzero;fill:rgb(100%,91.372549%,80%);fill-opacity:1;" />
<path d="M 512.074219 436.800781 C 510.976562 436.398438 509.875 436.199219 508.777344 435.800781 C 509.875 436.199219 510.976562 436.5 512.074219 436.800781 Z M 512.074219 436.800781 " style=" stroke:none;fill-rule:nonzero;fill:rgb(100%,91.372549%,80%);fill-opacity:1;" />
<path d="M 363.277344 547.199219 C 363.277344 546.101562 363.175781 544.800781 363.175781 543.601562 C 363.175781 543.898438 363.175781 544.199219 363.175781 544.5 C 363.074219 545.398438 363.277344 546.300781 363.277344 547.199219 Z M 363.277344 547.199219 " style=" stroke:none;fill-rule:nonzero;fill:rgb(100%,91.372549%,80%);fill-opacity:1;" />
<path d="M 501.675781 434 C 500.375 433.699219 499.074219 433.398438 497.777344 433.199219 C 499.074219 433.398438 500.375 433.699219 501.675781 434 Z M 501.675781 434 " style=" stroke:none;fill-rule:nonzero;fill:rgb(100%,91.372549%,80%);fill-opacity:1;" />
<path d="M 475.675781 431.101562 C 476.875 431.101562 478.074219 431.199219 479.277344 431.199219 C 478.375 431.199219 477.476562 431.101562 476.574219 431.101562 C 476.277344 431.101562 475.976562 431.101562 475.675781 431.101562 Z M 475.675781 431.101562 " style=" stroke:none;fill-rule:nonzero;fill:rgb(100%,91.372549%,80%);fill-opacity:1;" />
<path d="M 363.675781 554.800781 C 363.777344 556.101562 363.976562 557.5 364.175781 558.800781 C 363.976562 557.5 363.777344 556.101562 363.675781 554.800781 Z M 363.675781 554.800781 " style=" stroke:none;fill-rule:nonzero;fill:rgb(100%,91.372549%,80%);fill-opacity:1;" />
<path d="M 467.277344 431.601562 C 466.375 431.699219 465.574219 431.699219 464.675781 431.800781 C 465.574219 431.601562 466.375 431.601562 467.277344 431.601562 Z M 467.277344 431.601562 " style=" stroke:none;fill-rule:nonzero;fill:rgb(100%,91.372549%,80%);fill-opacity:1;" />
<path d="M 363.777344 532.699219 C 363.675781 533.5 363.675781 534.300781 363.675781 535.101562 C 363.675781 534.300781 363.675781 533.5 363.777344 532.699219 Z M 363.777344 532.699219 " style=" stroke:none;fill-rule:nonzero;fill:rgb(100%,91.372549%,80%);fill-opacity:1;" />
<path d="M 490.875 432.101562 C 489.574219 431.898438 488.175781 431.800781 486.875 431.601562 C 488.175781 431.699219 489.476562 431.898438 490.875 432.101562 Z M 490.875 432.101562 " style=" stroke:none;fill-rule:nonzero;fill:rgb(100%,91.372549%,80%);fill-opacity:1;" />
<path d="M 431.175781 306.300781 L 90.875 306.300781 C 84.574219 306.300781 79.574219 301.199219 79.574219 295 C 79.574219 288.800781 84.675781 283.699219 90.875 283.699219 L 431.175781 283.699219 C 437.476562 283.699219 442.476562 288.800781 442.476562 295 C 442.476562 301.199219 437.476562 306.300781 431.175781 306.300781 Z M 431.175781 306.300781 " style=" stroke:none;fill-rule:nonzero;fill:rgb(100%,47.45098%,33.72549%);fill-opacity:1;" />
<path d="M 431.175781 374.398438 L 90.875 374.398438 C 84.574219 374.398438 79.574219 369.300781 79.574219 363.101562 C 79.574219 356.800781 84.675781 351.800781 90.875 351.800781 L 431.175781 351.800781 C 437.476562 351.800781 442.476562 356.898438 442.476562 363.101562 C 442.574219 369.300781 437.476562 374.398438 431.175781 374.398438 Z M 431.175781 374.398438 " style=" stroke:none;fill-rule:nonzero;fill:rgb(100%,47.45098%,33.72549%);fill-opacity:1;" />
<path d="M 374.476562 442.398438 L 90.875 442.398438 C 84.574219 442.398438 79.574219 437.300781 79.574219 431.101562 C 79.574219 424.800781 84.675781 419.800781 90.875 419.800781 L 374.476562 419.800781 C 380.777344 419.800781 385.777344 424.898438 385.777344 431.101562 C 385.777344 437.300781 380.777344 442.398438 374.476562 442.398438 Z M 374.476562 442.398438 " style=" stroke:none;fill-rule:nonzero;fill:rgb(100%,47.45098%,33.72549%);fill-opacity:1;" />
<path d="M 329.074219 510.5 L 90.875 510.5 C 84.574219 510.5 79.574219 505.398438 79.574219 499.199219 C 79.574219 492.898438 84.675781 487.898438 90.875 487.898438 L 329.074219 487.898438 C 335.375 487.898438 340.375 493 340.375 499.199219 C 340.476562 505.398438 335.375 510.5 329.074219 510.5 Z M 329.074219 510.5 " style=" stroke:none;fill-rule:nonzero;fill:rgb(100%,47.45098%,33.72549%);fill-opacity:1;" />
<path d="M 431.175781 238.199219 L 181.574219 238.199219 C 175.277344 238.199219 170.277344 233.101562 170.277344 226.898438 C 170.277344 220.699219 175.375 215.601562 181.574219 215.601562 L 431.175781 215.601562 C 437.476562 215.601562 442.476562 220.699219 442.476562 226.898438 C 442.476562 233.101562 437.476562 238.199219 431.175781 238.199219 Z M 431.175781 238.199219 " style=" stroke:none;fill-rule:nonzero;fill:rgb(100%,47.45098%,33.72549%);fill-opacity:1;" />
<path d="M 136.277344 238.199219 L 90.875 238.199219 C 84.574219 238.199219 79.574219 233.101562 79.574219 226.898438 C 79.574219 220.699219 84.675781 215.601562 90.875 215.601562 L 136.277344 215.601562 C 142.574219 215.601562 147.574219 220.699219 147.574219 226.898438 C 147.574219 233.101562 142.476562 238.199219 136.277344 238.199219 Z M 136.277344 238.199219 " style=" stroke:none;fill-rule:nonzero;fill:rgb(100%,47.45098%,33.72549%);fill-opacity:1;" />
<path d="M 453.875 601.199219 C 450.875 601.199219 447.976562 600 445.875 597.898438 L 409.074219 561.101562 C 404.675781 556.601562 404.875 549.398438 409.375 545.101562 C 413.777344 540.898438 420.777344 540.898438 425.175781 545.101562 L 453.976562 573.898438 L 530.875 497 C 535.375 492.601562 542.574219 492.800781 546.875 497.300781 C 551.074219 501.699219 551.074219 508.699219 546.875 513.101562 L 461.976562 598 C 459.777344 600 456.875 601.199219 453.875 601.199219 Z M 453.875 601.199219 " style=" stroke:none;fill-rule:nonzero;fill:rgb(94.509804%,94.901961%,94.901961%);fill-opacity:1;" />
</g>
</svg>