<svg xmlns="http://www.w3.org/2000/svg" height="680pt" version="1.1" viewBox="-35 0 680 680.00207" width="680pt">
<g id="surface1">
<path d="M 23.402344 609.601562 L 384.902344 609.601562 C 383.402344 606.300781 382.199219 602.898438 381 599.398438 C 380.601562 598.300781 380.300781 597.101562 380 596 C 379.300781 593.601562 378.601562 591.101562 378 588.699219 C 377.699219 587.398438 377.402344 586 377.199219 584.699219 C 376.699219 582.398438 376.300781 580 376 577.5 C 375.800781 576.101562 375.601562 574.699219 375.5 573.300781 C 375.300781 570.699219 375.101562 568.101562 375.101562 565.5 C 375.101562 564.601562 375 563.699219 375 562.699219 C 375 562.398438 375 562.101562 375 561.800781 C 375 558.898438 375.199219 555.898438 375.402344 553 C 375.5 552.199219 375.5 551.300781 375.601562 550.5 C 376.402344 543.199219 377.800781 535.898438 379.800781 528.898438 C 391 491.199219 420.5 461.601562 458.199219 450.5 C 465.300781 448.398438 472.601562 447 479.902344 446.300781 C 480.800781 446.199219 481.699219 446.199219 482.5 446.101562 C 485.402344 445.898438 488.402344 445.699219 491.199219 445.699219 C 491.5 445.699219 491.800781 445.699219 492.199219 445.699219 C 493.101562 445.699219 494 445.800781 495 445.800781 C 497.601562 445.898438 500.199219 446 502.800781 446.199219 C 504.199219 446.300781 505.601562 446.5 507 446.699219 C 509.402344 447 511.800781 447.398438 514.199219 447.898438 C 515.601562 448.199219 516.902344 448.398438 518.300781 448.699219 C 520.800781 449.300781 523.199219 449.898438 525.601562 450.601562 C 526.800781 450.898438 527.902344 451.199219 529 451.601562 C 532.5 452.800781 535.902344 454 539.199219 455.5 L 539.199219 23.5 C 539.199219 10.601562 528.699219 0.101562 515.800781 0.101562 L 152.402344 0.101562 L 152.402344 117.199219 C 152.402344 130.101562 141.902344 140.601562 129 140.601562 L 0 140.601562 L 0 586.101562 C 0 599.101562 10.5 609.601562 23.402344 609.601562 Z M 445.5 234.5 Z M 140.601562 234.5 Z M 445.5 304.800781 Z M 445.5 375.101562 Z M 386.800781 445.5 Z M 339.902344 515.800781 Z M 339.902344 515.800781 " style=" stroke:none;fill-rule:nonzero;fill:rgb(100%,91.372549%,80%);fill-opacity:1;" />
<path d="M 152.402344 609.601562 L 515.800781 609.601562 C 528.699219 609.601562 539.199219 599.101562 539.199219 586.199219 L 539.199219 247.300781 C 475.199219 422.699219 331.601562 557.199219 152.402344 609.601562 Z M 152.402344 609.601562 " style=" stroke:none;fill-rule:nonzero;fill:rgb(100%,88.627451%,74.117647%);fill-opacity:1;" />
<path d="M 495.101562 445.601562 C 497.699219 445.699219 500.300781 445.800781 502.902344 446 C 500.402344 445.800781 497.800781 445.699219 495.101562 445.601562 Z M 495.101562 445.601562 " style=" stroke:none;fill-rule:nonzero;fill:rgb(100%,91.372549%,80%);fill-opacity:1;" />
<path d="M 375.101562 561.800781 C 375.101562 558.800781 375.300781 555.898438 375.5 553 C 375.402344 555.898438 375.199219 558.898438 375.101562 561.800781 Z M 375.101562 561.800781 " style=" stroke:none;fill-rule:nonzero;fill:rgb(100%,91.372549%,80%);fill-opacity:1;" />
<path d="M 482.699219 446 C 485.601562 445.800781 488.5 445.601562 491.402344 445.601562 C 488.5 445.601562 485.601562 445.699219 482.699219 446 Z M 482.699219 446 " style=" stroke:none;fill-rule:nonzero;fill:rgb(100%,91.372549%,80%);fill-opacity:1;" />
<path d="M 375.699219 573.300781 C 375.5 570.699219 375.300781 568.101562 375.300781 565.5 C 375.300781 568.101562 375.402344 570.699219 375.699219 573.300781 Z M 375.699219 573.300781 " style=" stroke:none;fill-rule:nonzero;fill:rgb(100%,91.372549%,80%);fill-opacity:1;" />
<path d="M 377.300781 584.699219 C 376.800781 582.398438 376.5 579.898438 376.101562 577.5 C 376.402344 579.898438 376.800781 582.300781 377.300781 584.699219 Z M 377.300781 584.699219 " style=" stroke:none;fill-rule:nonzero;fill:rgb(100%,91.372549%,80%);fill-opacity:1;" />
<path d="M 518.402344 448.5 C 520.902344 449.101562 523.300781 449.699219 525.699219 450.398438 C 523.300781 449.699219 520.800781 449 518.402344 448.5 Z M 518.402344 448.5 " style=" stroke:none;fill-rule:nonzero;fill:rgb(100%,91.372549%,80%);fill-opacity:1;" />
<path d="M 480.101562 446.101562 C 472.800781 446.898438 465.5 448.300781 458.402344 450.300781 C 420.699219 461.5 391.199219 491 380 528.699219 C 377.902344 535.800781 376.5 543 375.800781 550.300781 C 381.601562 495.398438 425.101562 452 480.101562 446.101562 Z M 480.101562 446.101562 " style=" stroke:none;fill-rule:nonzero;fill:rgb(100%,91.372549%,80%);fill-opacity:1;" />
<path d="M 539.199219 455.300781 C 535.902344 453.800781 532.5 452.601562 529 451.398438 C 532.5 452.601562 535.902344 453.898438 539.199219 455.300781 Z M 539.199219 455.300781 " style=" stroke:none;fill-rule:nonzero;fill:rgb(100%,91.372549%,80%);fill-opacity:1;" />
<path d="M 507.101562 446.5 C 509.5 446.800781 511.902344 447.199219 514.300781 447.699219 C 511.902344 447.199219 509.5 446.800781 507.101562 446.5 Z M 507.101562 446.5 " style=" stroke:none;fill-rule:nonzero;fill:rgb(100%,91.372549%,80%);fill-opacity:1;" />
<path d="M 380.101562 596.101562 C 379.402344 593.699219 378.699219 591.199219 378.101562 588.800781 C 378.601562 591.199219 379.300781 593.601562 380.101562 596.101562 Z M 380.101562 596.101562 " style=" stroke:none;fill-rule:nonzero;fill:rgb(100%,91.372549%,80%);fill-opacity:1;" />
<path d="M 385 609.601562 C 383.5 606.300781 382.300781 602.898438 381.101562 599.398438 C 382.199219 602.898438 383.5 606.300781 385 609.601562 Z M 385 609.601562 " style=" stroke:none;fill-rule:nonzero;fill:rgb(100%,91.372549%,80%);fill-opacity:1;" />
<path d="M 152.402344 117.199219 L 152.402344 0 L 0 140.699219 L 129 140.699219 C 141.902344 140.699219 152.402344 130.199219 152.402344 117.199219 Z M 152.402344 117.199219 " style=" stroke:none;fill-rule:nonzero;fill:rgb(100%,66.27451%,57.647059%);fill-opacity:1;" />
<path d="M 525.699219 450.398438 C 523.402344 449.699219 520.902344 449 518.402344 448.5 C 517.101562 448.199219 515.699219 447.898438 514.300781 447.699219 C 512 447.300781 509.5 446.898438 507.101562 446.5 C 505.699219 446.300781 504.300781 446.101562 502.902344 446 C 500.300781 445.800781 497.699219 445.699219 495.101562 445.601562 C 493.902344 445.601562 492.601562 445.5 491.402344 445.5 C 488.5 445.5 485.601562 445.699219 482.699219 445.898438 C 481.800781 446 480.902344 446 480.101562 446.101562 C 425.101562 451.898438 381.601562 495.398438 375.800781 550.398438 C 375.699219 551.199219 375.699219 552.101562 375.601562 552.898438 C 375.402344 555.800781 375.199219 558.800781 375.199219 561.699219 C 375.199219 562.898438 375.300781 564.199219 375.300781 565.398438 C 375.402344 568 375.5 570.699219 375.699219 573.199219 C 375.800781 574.601562 376 576 376.199219 577.398438 C 376.5 579.800781 376.902344 582.199219 377.402344 584.601562 C 377.699219 586 377.902344 587.300781 378.199219 588.601562 C 378.800781 591.101562 379.402344 593.5 380.199219 595.898438 C 380.5 597.101562 380.800781 598.199219 381.199219 599.300781 C 382.402344 602.800781 383.601562 606.199219 385.101562 609.5 C 410.902344 668.898438 480 696.101562 539.402344 670.199219 C 598.800781 644.300781 626 575.300781 600.101562 515.898438 C 588.300781 488.699219 566.601562 467 539.402344 455.199219 C 536.101562 453.699219 532.699219 452.5 529.199219 451.300781 C 527.902344 451.101562 526.800781 450.800781 525.699219 450.398438 Z M 542.101562 612.5 L 492.402344 562.800781 L 442.699219 612.5 L 492.402344 562.800781 L 442.601562 513 L 492.300781 562.699219 L 542 513 L 492.300781 562.699219 Z M 542.101562 612.5 " style=" stroke:none;fill-rule:nonzero;fill:rgb(100%,45.098039%,30.980392%);fill-opacity:1;" />
<path d="M 378.101562 588.699219 C 377.800781 587.398438 377.5 586 377.300781 584.699219 C 377.601562 586 377.800781 587.300781 378.101562 588.699219 Z M 378.101562 588.699219 " style=" stroke:none;fill-rule:nonzero;fill:rgb(100%,91.372549%,80%);fill-opacity:1;" />
<path d="M 381.101562 599.398438 C 380.699219 598.300781 380.402344 597.101562 380.101562 596 C 380.402344 597.199219 380.699219 598.300781 381.101562 599.398438 Z M 381.101562 599.398438 " style=" stroke:none;fill-rule:nonzero;fill:rgb(100%,91.372549%,80%);fill-opacity:1;" />
<path d="M 376.101562 577.5 C 375.902344 576.101562 375.699219 574.699219 375.601562 573.300781 C 375.800781 574.699219 376 576.101562 376.101562 577.5 Z M 376.101562 577.5 " style=" stroke:none;fill-rule:nonzero;fill:rgb(100%,91.372549%,80%);fill-opacity:1;" />
<path d="M 375.101562 562.699219 C 375.101562 563.601562 375.199219 564.5 375.199219 565.5 C 375.199219 564.300781 375.101562 563 375.101562 561.800781 C 375.101562 562.101562 375.101562 562.398438 375.101562 562.699219 Z M 375.101562 562.699219 " style=" stroke:none;fill-rule:nonzero;fill:rgb(100%,91.372549%,80%);fill-opacity:1;" />
<path d="M 514.300781 447.699219 C 515.699219 448 517 448.199219 518.402344 448.5 C 517 448.199219 515.699219 447.898438 514.300781 447.699219 Z M 514.300781 447.699219 " style=" stroke:none;fill-rule:nonzero;fill:rgb(100%,91.372549%,80%);fill-opacity:1;" />
<path d="M 502.902344 446 C 504.300781 446.101562 505.699219 446.300781 507.101562 446.5 C 505.699219 446.300781 504.300781 446.199219 502.902344 446 Z M 502.902344 446 " style=" stroke:none;fill-rule:nonzero;fill:rgb(100%,91.372549%,80%);fill-opacity:1;" />
<path d="M 525.699219 450.398438 C 526.902344 450.699219 528 451 529.101562 451.398438 C 527.902344 451.101562 526.800781 450.800781 525.699219 450.398438 Z M 525.699219 450.398438 " style=" stroke:none;fill-rule:nonzero;fill:rgb(100%,91.372549%,80%);fill-opacity:1;" />
<path d="M 480.101562 446.101562 C 481 446 481.902344 446 482.699219 445.898438 C 481.800781 446.101562 480.902344 446.101562 480.101562 446.101562 Z M 480.101562 446.101562 " style=" stroke:none;fill-rule:nonzero;fill:rgb(100%,91.372549%,80%);fill-opacity:1;" />
<path d="M 375.601562 553 C 375.699219 552.199219 375.699219 551.300781 375.800781 550.5 C 375.699219 551.300781 375.699219 552.199219 375.601562 553 Z M 375.601562 553 " style=" stroke:none;fill-rule:nonzero;fill:rgb(100%,91.372549%,80%);fill-opacity:1;" />
<path d="M 492.402344 445.5 C 492.101562 445.5 491.800781 445.5 491.402344 445.5 C 492.699219 445.5 493.902344 445.601562 495.101562 445.601562 C 494.199219 445.601562 493.300781 445.5 492.402344 445.5 Z M 492.402344 445.5 " style=" stroke:none;fill-rule:nonzero;fill:rgb(100%,91.372549%,80%);fill-opacity:1;" />
<path d="M 442.601562 624.199219 C 436.101562 624.199219 430.902344 618.898438 430.902344 612.5 C 430.902344 609.398438 432.101562 606.398438 434.300781 604.199219 L 533.800781 504.699219 C 538.5 500.199219 545.902344 500.300781 550.402344 505 C 554.800781 509.5 554.800781 516.699219 550.402344 521.300781 L 450.902344 620.800781 C 448.699219 623 445.699219 624.199219 442.601562 624.199219 Z M 442.601562 624.199219 " style=" stroke:none;fill-rule:nonzero;fill:rgb(94.509804%,94.901961%,94.901961%);fill-opacity:1;" />
<path d="M 430.902344 513 C 430.902344 506.5 436.199219 501.300781 442.601562 501.300781 C 445.699219 501.300781 448.699219 502.5 450.902344 504.699219 L 550.402344 604.199219 C 554.902344 608.898438 554.800781 616.300781 550.101562 620.800781 C 545.601562 625.199219 538.402344 625.199219 533.800781 620.800781 L 434.300781 521.300781 C 432.101562 519.101562 430.902344 516.101562 430.902344 513 Z M 430.902344 513 " style=" stroke:none;fill-rule:nonzero;fill:rgb(94.509804%,94.901961%,94.901961%);fill-opacity:1;" />
<path d="M 445.5 316.5 L 93.800781 316.5 C 87.300781 316.5 82.101562 311.300781 82.101562 304.800781 C 82.101562 298.300781 87.300781 293.101562 93.800781 293.101562 L 445.5 293.101562 C 452 293.101562 457.199219 298.300781 457.199219 304.800781 C 457.199219 311.300781 451.902344 316.5 445.5 316.5 Z M 445.5 316.5 " style=" stroke:none;fill-rule:nonzero;fill:rgb(100%,47.45098%,33.72549%);fill-opacity:1;" />
<path d="M 445.5 386.898438 L 93.800781 386.898438 C 87.300781 386.898438 82.101562 381.699219 82.101562 375.199219 C 82.101562 368.699219 87.300781 363.5 93.800781 363.5 L 445.5 363.5 C 452 363.5 457.199219 368.699219 457.199219 375.199219 C 457.199219 381.601562 451.902344 386.898438 445.5 386.898438 Z M 445.5 386.898438 " style=" stroke:none;fill-rule:nonzero;fill:rgb(100%,47.45098%,33.72549%);fill-opacity:1;" />
<path d="M 386.800781 457.199219 L 93.800781 457.199219 C 87.300781 457.199219 82.101562 452 82.101562 445.5 C 82.101562 439 87.300781 433.800781 93.800781 433.800781 L 386.800781 433.800781 C 393.300781 433.800781 398.5 439 398.5 445.5 C 398.601562 452 393.300781 457.199219 386.800781 457.199219 Z M 386.800781 457.199219 " style=" stroke:none;fill-rule:nonzero;fill:rgb(100%,47.45098%,33.72549%);fill-opacity:1;" />
<path d="M 339.902344 527.601562 L 93.800781 527.601562 C 87.300781 527.601562 82.101562 522.398438 82.101562 515.898438 C 82.101562 509.398438 87.300781 504.199219 93.800781 504.199219 L 340 504.199219 C 346.5 504.199219 351.699219 509.398438 351.699219 515.898438 C 351.699219 522.300781 346.402344 527.601562 339.902344 527.601562 Z M 339.902344 527.601562 " style=" stroke:none;fill-rule:nonzero;fill:rgb(100%,47.45098%,33.72549%);fill-opacity:1;" />
<path d="M 445.5 246.199219 L 187.5 246.199219 C 181 246.199219 175.800781 241 175.800781 234.5 C 175.800781 228 181 222.800781 187.5 222.800781 L 445.402344 222.800781 C 451.902344 222.800781 457.101562 228 457.101562 234.5 C 457.101562 241 451.902344 246.199219 445.5 246.199219 Z M 445.5 246.199219 " style=" stroke:none;fill-rule:nonzero;fill:rgb(100%,47.45098%,33.72549%);fill-opacity:1;" />
<path d="M 140.601562 246.199219 L 93.800781 246.199219 C 87.300781 246.199219 82.101562 241 82.101562 234.5 C 82.101562 228 87.300781 222.800781 93.800781 222.800781 L 140.699219 222.800781 C 147.199219 222.800781 152.402344 228 152.402344 234.5 C 152.402344 241 147.101562 246.199219 140.601562 246.199219 Z M 140.601562 246.199219 " style=" stroke:none;fill-rule:nonzero;fill:rgb(100%,47.45098%,33.72549%);fill-opacity:1;" />
</g>
</svg>